<svg width="16" height="14" viewBox="0 0 16 14" fill="none" xmlns="http://www.w3.org/2000/svg">
<path d="M8.57172 1.64279L8.57149 1.64303L7.99482 2.23726L7.636 2.607L7.27719 2.23726L6.70052 1.64303L6.69995 1.64244C5.39593 0.29425 3.01587 0.0978675 1.63184 1.27701L8.57172 1.64279ZM8.57172 1.64279C9.88274 0.290064 11.9706 0.101231 13.3506 1.27727C14.966 2.65631 15.0527 5.13809 13.6027 6.63449L13.6026 6.63459L7.93848 12.4831C7.76904 12.658 7.50005 12.658 7.3306 12.4831L7.32565 12.478L7.32056 12.473L4.32145 9.54904L1.67697 6.64574L1.67192 6.6402M8.57172 1.64279L1.67192 6.6402M1.67192 6.6402L1.6667 6.63481M1.67192 6.6402L1.6667 6.63481M1.6667 6.63481C0.173601 5.09122 0.0626092 2.61645 1.63176 1.27708L1.6667 6.63481Z" stroke="black"/>
</svg>
